<svg xmlns="http://www.w3.org/2000/svg" viewBox="0 0 283.61 239.11"><defs><style>.cls-1{fill:#ffffff;}</style></defs><g id="图层_2" data-name="图层 2"><g id="图层_2-2" data-name="图层 2"><path fill="#fffffff" class="cls-1"  d="M231.72,217.07C180,250.58,115,239.41,72,225.76S11.59,204.24,6.21,188.93,0,166.17,0,166.17s14.07-36,34.34-81.52S96,14.31,127,5.2,217.65-8.86,260.27,59.83c.59.94,1.16,1.89,1.72,2.83-28.85,7.87-132.79,36-142.4,35.65-11.18-.42-71.59,14.48-70.35,38.07s21.93,45.51,47.59,15.72c24.45-28.39,96.82-59.17,117.1-65.38,14.94-4.57,37-13.41,54-13.45C300.19,135.69,280,185.77,231.72,217.07Z"/></g></g></svg>